<mxfile host="Electron" modified="2023-11-23T19:13:50.976Z" agent="Mozilla/5.0 (Windows NT 10.0; Win64; x64) AppleWebKit/537.36 (KHTML, like Gecko) draw.io/21.6.8 Chrome/114.0.5735.289 Electron/25.5.0 Safari/537.36" etag="TAYlBPf7OTTuW_xvXin9" version="21.6.8" type="device">
  <diagram name="Страница — 1" id="TWy4UYaT7lhCc4IGFQ1o">
    <mxGraphModel dx="1290" dy="638" grid="1" gridSize="10" guides="1" tooltips="1" connect="1" arrows="1" fold="1" page="1" pageScale="1" pageWidth="827" pageHeight="1169" math="0" shadow="0">
      <root>
        <mxCell id="0" />
        <mxCell id="1" parent="0" />
        <mxCell id="f2MMuW7yAnDLfrSJl3VY-1" value="оформление и выдача заказа" style="swimlane;whiteSpace=wrap;html=1;" parent="1" vertex="1">
          <mxGeometry x="314" y="70" width="200" height="60" as="geometry" />
        </mxCell>
        <mxCell id="f2MMuW7yAnDLfrSJl3VY-2" value="Система" style="rounded=0;whiteSpace=wrap;html=1;" parent="f2MMuW7yAnDLfrSJl3VY-1" vertex="1">
          <mxGeometry y="40" width="130" height="20" as="geometry" />
        </mxCell>
        <mxCell id="f2MMuW7yAnDLfrSJl3VY-3" value="" style="endArrow=none;html=1;rounded=0;startArrow=oval;startFill=1;entryX=0.5;entryY=1;entryDx=0;entryDy=0;exitX=0.479;exitY=0.009;exitDx=0;exitDy=0;exitPerimeter=0;" parent="1" edge="1">
          <mxGeometry width="50" height="50" relative="1" as="geometry">
            <mxPoint x="140.00000000000003" y="200" as="sourcePoint" />
            <mxPoint x="413.41" y="128.74" as="targetPoint" />
            <Array as="points">
              <mxPoint x="140.41" y="158.74" />
              <mxPoint x="413.41" y="158.74" />
            </Array>
          </mxGeometry>
        </mxCell>
        <mxCell id="f2MMuW7yAnDLfrSJl3VY-5" value="оформления заказа" style="swimlane;whiteSpace=wrap;html=1;startSize=23;" parent="1" vertex="1">
          <mxGeometry x="40" y="200" width="210" height="140" as="geometry" />
        </mxCell>
        <mxCell id="f2MMuW7yAnDLfrSJl3VY-6" value="Менеджер" style="rounded=0;whiteSpace=wrap;html=1;" parent="f2MMuW7yAnDLfrSJl3VY-5" vertex="1">
          <mxGeometry y="120" width="170" height="20" as="geometry" />
        </mxCell>
        <mxCell id="f2MMuW7yAnDLfrSJl3VY-11" value="название: оформление заказа" style="text;strokeColor=none;fillColor=none;align=left;verticalAlign=middle;spacingLeft=4;spacingRight=4;overflow=hidden;points=[[0,0.5],[1,0.5]];portConstraint=eastwest;rotatable=0;whiteSpace=wrap;html=1;" parent="f2MMuW7yAnDLfrSJl3VY-5" vertex="1">
          <mxGeometry x="5" y="30" width="190" height="30" as="geometry" />
        </mxCell>
        <mxCell id="f2MMuW7yAnDLfrSJl3VY-13" value="проверка наличия позиций заказа в базе данных и взаимодействие с ней" style="text;strokeColor=none;fillColor=none;align=left;verticalAlign=middle;spacingLeft=4;spacingRight=4;overflow=hidden;points=[[0,0.5],[1,0.5]];portConstraint=eastwest;rotatable=0;whiteSpace=wrap;html=1;" parent="f2MMuW7yAnDLfrSJl3VY-5" vertex="1">
          <mxGeometry x="5" y="60" width="201" height="50" as="geometry" />
        </mxCell>
        <mxCell id="f2MMuW7yAnDLfrSJl3VY-7" value="выдача заказа" style="swimlane;whiteSpace=wrap;html=1;" parent="1" vertex="1">
          <mxGeometry x="570" y="200" width="200" height="140" as="geometry" />
        </mxCell>
        <mxCell id="f2MMuW7yAnDLfrSJl3VY-8" value="Кладовщик" style="rounded=0;whiteSpace=wrap;html=1;" parent="f2MMuW7yAnDLfrSJl3VY-7" vertex="1">
          <mxGeometry y="120" width="170" height="20" as="geometry" />
        </mxCell>
        <mxCell id="f2MMuW7yAnDLfrSJl3VY-10" value="название: выдача заказа, упаковка" style="text;strokeColor=none;fillColor=none;align=left;verticalAlign=middle;spacingLeft=4;spacingRight=4;overflow=hidden;points=[[0,0.5],[1,0.5]];portConstraint=eastwest;rotatable=0;whiteSpace=wrap;html=1;" parent="f2MMuW7yAnDLfrSJl3VY-7" vertex="1">
          <mxGeometry y="30" width="190" height="30" as="geometry" />
        </mxCell>
        <mxCell id="f2MMuW7yAnDLfrSJl3VY-14" value="сборка и упаковка заказа с последущей отправкой" style="text;strokeColor=none;fillColor=none;align=left;verticalAlign=middle;spacingLeft=4;spacingRight=4;overflow=hidden;points=[[0,0.5],[1,0.5]];portConstraint=eastwest;rotatable=0;whiteSpace=wrap;html=1;" parent="f2MMuW7yAnDLfrSJl3VY-7" vertex="1">
          <mxGeometry y="60" width="190" height="30" as="geometry" />
        </mxCell>
        <mxCell id="f2MMuW7yAnDLfrSJl3VY-9" value="" style="endArrow=none;html=1;rounded=0;startArrow=oval;startFill=1;entryX=0.5;entryY=1;entryDx=0;entryDy=0;exitX=0.5;exitY=0;exitDx=0;exitDy=0;" parent="1" source="f2MMuW7yAnDLfrSJl3VY-7" target="f2MMuW7yAnDLfrSJl3VY-1" edge="1">
          <mxGeometry width="50" height="50" relative="1" as="geometry">
            <mxPoint x="560" y="200" as="sourcePoint" />
            <mxPoint x="470" y="180" as="targetPoint" />
            <Array as="points">
              <mxPoint x="670" y="160" />
              <mxPoint x="414" y="160" />
            </Array>
          </mxGeometry>
        </mxCell>
        <mxCell id="cxQSdue1BGOb_Mb3pctq-2" value="оформление накладных" style="swimlane;whiteSpace=wrap;html=1;startSize=23;" vertex="1" parent="1">
          <mxGeometry x="304" y="200" width="210" height="140" as="geometry" />
        </mxCell>
        <mxCell id="cxQSdue1BGOb_Mb3pctq-3" value="Бухгалтер" style="rounded=0;whiteSpace=wrap;html=1;" vertex="1" parent="cxQSdue1BGOb_Mb3pctq-2">
          <mxGeometry y="120" width="170" height="20" as="geometry" />
        </mxCell>
        <mxCell id="cxQSdue1BGOb_Mb3pctq-4" value="название: оформление накладых" style="text;strokeColor=none;fillColor=none;align=left;verticalAlign=middle;spacingLeft=4;spacingRight=4;overflow=hidden;points=[[0,0.5],[1,0.5]];portConstraint=eastwest;rotatable=0;whiteSpace=wrap;html=1;" vertex="1" parent="cxQSdue1BGOb_Mb3pctq-2">
          <mxGeometry x="5" y="30" width="190" height="30" as="geometry" />
        </mxCell>
        <mxCell id="cxQSdue1BGOb_Mb3pctq-5" value="получение данных от менеджера и создание накладной к указанной позиции товара" style="text;strokeColor=none;fillColor=none;align=left;verticalAlign=middle;spacingLeft=4;spacingRight=4;overflow=hidden;points=[[0,0.5],[1,0.5]];portConstraint=eastwest;rotatable=0;whiteSpace=wrap;html=1;" vertex="1" parent="cxQSdue1BGOb_Mb3pctq-2">
          <mxGeometry x="4.5" y="60" width="201" height="50" as="geometry" />
        </mxCell>
        <mxCell id="cxQSdue1BGOb_Mb3pctq-7" value="" style="endArrow=none;html=1;rounded=0;startArrow=oval;startFill=1;" edge="1" parent="1">
          <mxGeometry width="50" height="50" relative="1" as="geometry">
            <mxPoint x="414" y="200" as="sourcePoint" />
            <mxPoint x="414" y="140" as="targetPoint" />
            <Array as="points">
              <mxPoint x="414" y="140" />
            </Array>
          </mxGeometry>
        </mxCell>
      </root>
    </mxGraphModel>
  </diagram>
</mxfile>
